<svg xmlns="http://www.w3.org/2000/svg" viewBox="0 0 64 64" fill="none">
    <defs>
      <linearGradient id="snow-cloud" x1="16" y1="14" x2="48" y2="38" gradientUnits="userSpaceOnUse">
        <stop stop-color="#FFFFFF"/>
        <stop offset="1" stop-color="#BAE6FD"/>
      </linearGradient>
    </defs>
    <path d="M18 38h28a10 10 0 0 0 1.2-19.9A14 14 0 0 0 20 20a9 9 0 0 0-2 18Z" fill="url(#snow-cloud)" stroke="#BAE6FD" stroke-width="1.5"/>
    <g stroke="#0284C7" stroke-width="2.5" stroke-linecap="round">
      <!-- Snowflake 1 -->
      <line x1="22" y1="44" x2="22" y2="54"/>
      <line x1="17" y1="49" x2="27" y2="49"/>
      <line x1="18.5" y1="45.5" x2="25.5" y2="52.5"/>
      <line x1="18.5" y1="52.5" x2="25.5" y2="45.5"/>
      <!-- Snowflake 2 -->
      <line x1="38" y1="44" x2="38" y2="54"/>
      <line x1="33" y1="49" x2="43" y2="49"/>
      <line x1="34.5" y1="45.5" x2="41.5" y2="52.5"/>
      <line x1="34.5" y1="52.5" x2="41.5" y2="45.5"/>
    </g>
  </svg>